<svg id="Layer_1" enable-background="new 0 0 256 256" height="512" viewBox="0 0 256 256" width="512" xmlns="http://www.w3.org/2000/svg"><path d="m194.777 101.695c-12.051 0-22.98 4.197-31.022 11.008l-9.648 11.952c-2.594 4.977-4.051 10.508-4.051 16.341 0 9.912 4.185 18.961 11.075 25.875l-7.066 17.797c-.678 1.706.945 3.428 2.69 2.854l26.205-8.621c3.766.905 7.725 1.397 11.818 1.397 24.699 0 44.721-17.596 44.721-39.302-.001-21.705-20.024-39.301-44.722-39.301z" fill="#8ac6dd"/><g fill="#3a312a"><path d="m194.777 100.195c-11.979 0-23.341 4.036-31.992 11.364-.632.536-.71 1.482-.175 2.114.536.632 1.481.71 2.114.175 8.109-6.87 18.782-10.653 30.053-10.653 23.832 0 43.221 16.958 43.221 37.802s-19.389 37.801-43.221 37.801c-3.866 0-7.725-.456-11.468-1.355-.271-.065-.554-.054-.819.034l-26.204 8.621c-.352.115-.585-.061-.694-.176-.107-.115-.269-.358-.133-.699l7.066-17.797c.22-.556.09-1.189-.332-1.612-6.859-6.884-10.638-15.697-10.638-24.816 0-5.441 1.306-10.706 3.881-15.648.383-.735.098-1.641-.637-2.023-.735-.384-1.64-.098-2.023.637-2.801 5.375-4.221 11.106-4.221 17.035 0 9.606 3.836 18.881 10.822 26.225l-6.708 16.893c-.53 1.336-.247 2.816.738 3.863.709.753 1.665 1.157 2.654 1.157.386 0 .777-.062 1.161-.188l25.803-8.489c3.842.889 7.792 1.34 11.751 1.34 25.486 0 46.221-18.303 46.221-40.801.001-22.5-20.733-40.804-46.22-40.804z"/><path d="m219.136 121.565h-47.305c-.828 0-1.5.671-1.5 1.5s.672 1.5 1.5 1.5h47.305c.828 0 1.5-.671 1.5-1.5 0-.828-.672-1.5-1.5-1.5z"/><path d="m224.05 136.783h-58.905c-.828 0-1.5.671-1.5 1.5s.672 1.5 1.5 1.5h58.905c.828 0 1.5-.671 1.5-1.5 0-.828-.672-1.5-1.5-1.5z"/><path d="m219.136 152.001h-47.305c-.828 0-1.5.671-1.5 1.5s.672 1.5 1.5 1.5h47.305c.828 0 1.5-.671 1.5-1.5s-.672-1.5-1.5-1.5z"/></g><path d="m191.634 26.102c-.974 11.564-13.031 13.39-13.031 13.39 10.352.487 12.932 14.059 12.932 14.059.221-9.677 13.328-14.202 13.328-14.202-9.819-.588-13.229-13.247-13.229-13.247z" fill="#d7e057"/><path d="m204.952 37.851c-8.609-.515-11.839-12.025-11.87-12.141-.191-.702-.854-1.168-1.584-1.101-.725.066-1.298.642-1.359 1.367-.86 10.215-11.319 11.963-11.761 12.033-.763.115-1.313.79-1.273 1.561.04.77.657 1.384 1.428 1.421 9.033.425 11.505 12.718 11.528 12.842.138.711.76 1.217 1.473 1.217.042 0 .084-.002.126-.005.765-.064 1.357-.693 1.375-1.459.194-8.509 12.198-12.777 12.319-12.819.675-.235 1.092-.914.994-1.623s-.682-1.25-1.396-1.293zm-13.573 10.348c-1.357-3.131-3.71-6.909-7.591-8.878 2.933-1.405 6.412-3.914 8.206-8.274 1.552 3.071 4.202 6.881 8.339 8.724-3.009 1.639-6.927 4.406-8.954 8.428z" fill="#3a312a"/><path d="m169.924 43.083c-.689 8.179-9.217 9.471-9.217 9.471 7.322.344 9.147 9.944 9.147 9.944.156-6.844 9.427-10.045 9.427-10.045-6.945-.416-9.357-9.37-9.357-9.37z" fill="#d7e057"/><path d="m179.37 50.955c-5.769-.345-7.977-8.186-7.999-8.265-.19-.702-.866-1.163-1.581-1.102-.726.065-1.3.642-1.361 1.368-.579 6.871-7.65 8.067-7.946 8.114-.763.115-1.313.79-1.273 1.561.04.77.657 1.384 1.428 1.421 6.038.284 7.728 8.643 7.743 8.725.136.712.759 1.22 1.473 1.22.041 0 .083-.001.125-.005.765-.063 1.358-.694 1.376-1.461.13-5.708 8.335-8.633 8.416-8.661.677-.234 1.094-.913.997-1.622-.099-.709-.684-1.25-1.398-1.293zm-9.59 6.795c-.924-1.886-2.341-3.948-4.449-5.281 1.856-1.041 3.699-2.63 4.873-4.917 1.058 1.874 2.656 3.955 4.944 5.225-1.85 1.101-3.991 2.741-5.368 4.973z" fill="#3a312a"/><path d="m169.924 16.425c-.689 8.179-9.217 9.471-9.217 9.471 7.322.344 9.147 9.944 9.147 9.944.156-6.845 9.427-10.045 9.427-10.045-6.945-.416-9.357-9.37-9.357-9.37z" fill="#d7e057"/><path d="m179.37 24.297c-5.769-.345-7.977-8.186-7.999-8.265-.19-.702-.866-1.162-1.581-1.102-.726.065-1.3.642-1.361 1.368-.579 6.871-7.65 8.067-7.946 8.114-.763.115-1.313.79-1.273 1.561.04.77.657 1.384 1.428 1.421 6.038.284 7.728 8.644 7.743 8.726.136.712.759 1.22 1.473 1.22.041 0 .083-.001.125-.005.765-.063 1.358-.694 1.376-1.461.13-5.709 8.336-8.634 8.416-8.662.677-.234 1.094-.913.997-1.622-.099-.709-.684-1.25-1.398-1.293zm-9.59 6.796c-.924-1.886-2.341-3.948-4.449-5.281 1.856-1.042 3.699-2.631 4.873-4.918 1.058 1.874 2.656 3.956 4.944 5.225-1.85 1.101-3.991 2.741-5.368 4.974z" fill="#3a312a"/><path d="m118.006 183.224h-19.54v-12.693c-5.405 3.745-10.997 5.954-16.424 5.954-5.206 0-10.699-2.231-16.081-6.021h-.331v12.759h-19.552c-16.335 0-29.576 13.234-29.576 29.56v26.788h131.08v-26.788c0-16.325-13.241-29.559-29.576-29.559z" fill="#fce8cb"/><path d="m118.006 181.724h-18.04v-11.193c0-.558-.309-1.07-.804-1.329-.494-.259-1.091-.222-1.55.096-5.446 3.774-10.685 5.688-15.569 5.688-4.681 0-9.801-1.934-15.217-5.747-.253-.178-.555-.273-.864-.273h-.331c-.829 0-1.5.671-1.5 1.5v11.259h-18.053c-17.135 0-31.076 13.934-31.076 31.061v26.788c0 .829.671 1.5 1.5 1.5h44.913c.829 0 1.5-.671 1.5-1.5s-.671-1.5-1.5-1.5h-43.413v-25.288c0-15.473 12.595-28.061 28.076-28.061h19.552c.829 0 1.5-.671 1.5-1.5v-10.177c5.203 3.279 10.21 4.938 14.913 4.938 4.779 0 9.789-1.576 14.924-4.691v9.93c0 .829.671 1.5 1.5 1.5h19.54c15.481 0 28.076 12.588 28.076 28.061v25.288h-69.893c-.829 0-1.5.671-1.5 1.5s.671 1.5 1.5 1.5h71.392c.828 0 1.5-.671 1.5-1.5v-26.788c0-17.128-13.94-31.062-31.076-31.062z" fill="#3a312a"/><path d="m118.007 183.215h-4.675l.122.088-20.325 26.943-10.489-7.898-10.489 7.898-20.325-26.943.121-.088h-5.869c-16.335 0-29.576 13.234-29.576 29.561v26.799h131.08v-26.799c0-16.327-13.24-29.561-29.575-29.561z" fill="#d7e057"/><path d="m118.006 181.715h-4.675c-.65 0-1.225.419-1.427 1.036-.019.058-.034.115-.045.173l-19.027 25.222-9.292-6.997c-.534-.402-1.271-.402-1.805 0l-9.291 6.997-19.027-25.223c-.012-.059-.027-.117-.045-.174-.202-.618-.777-1.035-1.426-1.035h-5.869c-17.135 0-31.076 13.934-31.076 31.061v26.799c0 .829.671 1.5 1.5 1.5h44.913c.829 0 1.5-.671 1.5-1.5s-.671-1.5-1.5-1.5h-43.412v-25.299c0-15.473 12.595-28.061 28.076-28.061h4.934l19.941 26.435c.498.662 1.439.793 2.1.295l9.586-7.219 9.586 7.219c.662.498 1.602.366 2.1-.295l19.942-26.435h3.739c15.481 0 28.076 12.588 28.076 28.061v25.299h-69.892c-.829 0-1.5.671-1.5 1.5s.671 1.5 1.5 1.5h71.392c.828 0 1.5-.671 1.5-1.5v-26.799c0-17.126-13.94-31.06-31.076-31.06z" fill="#3a312a"/><ellipse clip-rule="evenodd" cx="31.257" cy="109.945" fill="#fce8cb" fill-rule="evenodd" rx="11.631" ry="11.637" transform="matrix(.003 -1 1 .003 -78.768 140.922)"/><path d="m31.256 96.814c-7.244 0-13.137 5.891-13.137 13.131s5.894 13.131 13.137 13.131c7.244 0 13.138-5.891 13.138-13.131s-5.894-13.131-13.138-13.131zm0 23.263c-5.59 0-10.137-4.545-10.137-10.131s4.547-10.131 10.137-10.131 10.138 4.545 10.138 10.131-4.548 10.131-10.138 10.131z" fill="#3a312a"/><ellipse clip-rule="evenodd" cx="132.831" cy="109.945" fill="#fce8cb" fill-rule="evenodd" rx="11.631" ry="11.637" transform="matrix(.001 -1 1 .001 22.718 242.638)"/><path d="m132.831 96.814c-7.244 0-13.138 5.891-13.138 13.131s5.893 13.131 13.138 13.131c7.244 0 13.138-5.891 13.138-13.131s-5.894-13.131-13.138-13.131zm0 23.263c-5.59 0-10.138-4.545-10.138-10.131s4.548-10.131 10.138-10.131 10.138 4.545 10.138 10.131-4.548 10.131-10.138 10.131z" fill="#3a312a"/><path d="m82.044 52.736c-28.492 0-51.59 23.086-51.59 51.563 0 28.478 28.538 72.189 51.59 72.189 24.149 0 51.59-43.711 51.59-72.189 0-28.477-23.098-51.563-51.59-51.563z" fill="#fce8cb"/><path d="m82.044 51.236c-29.274 0-53.09 23.804-53.09 53.063 0 13.838 6.674 32.088 17.417 47.627 11.283 16.319 24.618 26.062 35.673 26.062 11.639 0 24.793-9.502 36.09-26.07 10.486-15.378 17-33.624 17-47.619 0-29.259-23.816-53.063-53.09-53.063zm33.612 98.992c-10.572 15.504-23.137 24.76-33.612 24.76-10.07 0-22.483-9.259-33.206-24.768-10.415-15.064-16.884-32.66-16.884-45.921 0-27.605 22.47-50.063 50.09-50.063s50.09 22.458 50.09 50.063c0 13.424-6.314 31.023-16.478 45.929z" fill="#3a312a"/><path d="m63.83 98.684c-2.781 0-5.035 2.253-5.035 5.033s2.254 5.033 5.035 5.033 5.035-2.253 5.035-5.033c0-2.779-2.254-5.033-5.035-5.033z" fill="#3a312a"/><path d="m100.258 98.684c-2.781 0-5.035 2.253-5.035 5.033s2.254 5.033 5.035 5.033 5.036-2.253 5.036-5.033c-.001-2.779-2.255-5.033-5.036-5.033z" fill="#3a312a"/><path d="m53.766 112.199c-4.79 0-8.674 2.901-8.674 6.481 0 3.579 3.884 6.481 8.674 6.481 4.791 0 8.674-2.902 8.674-6.481 0-3.58-3.884-6.481-8.674-6.481z" fill="#f5978a"/><path d="m110.322 112.199c-4.791 0-8.674 2.901-8.674 6.481 0 3.579 3.884 6.481 8.674 6.481s8.674-2.902 8.674-6.481c0-3.58-3.884-6.481-8.674-6.481z" fill="#f5978a"/><path d="m136.037 92.381c0-28.18-23.907-51.025-53.398-51.025s-53.397 22.844-53.397 51.025c0 2.982.54 5.205 1.543 7.981.473 1.309 8.119-2.871 8.77-3.329 3.256-2.291 5.916-5.396 7.905-8.829.822-1.427 1.508-2.88 2.06-4.333 1.76-4.635 6.542-17.533 11.398-16.521 6.512 1.357 13.892 2.123 21.721 2.123s15.21-.767 21.722-2.123c4.856-1.012 9.638 11.886 11.398 16.521.552 1.453 1.237 2.905 2.06 4.333 3.285 5.679 8.833 11.086 15.583 12.069.017-.326.429-.437.736-.548 2.209-.802 1.899-5.574 1.899-7.344z" fill="#87796f"/><path d="m137.543 92.955-.006-.575c0-28.962-24.627-52.525-54.898-52.525-30.27 0-54.897 23.563-54.897 52.526 0 3.311.625 5.704 1.632 8.492.196.541.635.955 1.206 1.135.187.059.403.086.645.086 2.854 0 9.131-3.79 9.193-3.834 3.258-2.293 6.142-5.51 8.341-9.308.848-1.472 1.575-3.002 2.162-4.549l.11-.29c5.286-13.943 8.268-15.563 9.58-15.294 6.863 1.43 14.274 2.155 22.027 2.155s15.165-.725 22.028-2.155c1.301-.266 4.29 1.348 9.579 15.294l.11.29c.587 1.547 1.315 3.078 2.164 4.552 4.103 7.094 10.333 11.88 16.664 12.803.417.059.842-.057 1.169-.325.103-.084.193-.182.27-.289.014-.005.024-.008.025-.009 2.999-1.088 2.932-5.701 2.896-8.18zm-3.994 5.387c-.149.052-.415.146-.69.314-5.174-1.059-10.263-5.191-13.74-11.201-.768-1.334-1.427-2.719-1.958-4.117l-.11-.29c-3.454-9.108-7.711-18.278-12.996-17.167-6.663 1.388-13.868 2.091-21.416 2.091s-14.753-.704-21.416-2.091c-5.308-1.114-9.543 8.059-12.996 17.167l-.11.29c-.531 1.397-1.189 2.783-1.955 4.114-1.981 3.421-4.565 6.31-7.466 8.352-.896.608-5.027 2.73-6.794 3.213-.724-2.139-1.16-4.09-1.161-6.636 0-27.309 23.281-49.526 51.897-49.526 28.617 0 51.898 22.217 51.898 49.525l.007.618c.063 4.314-.548 5.183-.994 5.344z" fill="#3a312a"/><path d="m60.663 175.932h13.186v33.749h-13.186z" fill="#87796f" transform="matrix(.799 -.602 .602 .799 -102.469 79.267)"/><path d="m83.88 201.41-20.319-26.947c-.499-.661-1.44-.793-2.1-.295l-10.532 7.934c-.318.24-.528.596-.583.99-.056.394.048.794.288 1.112l20.319 26.947c.295.391.744.597 1.199.597.314 0 .631-.098.901-.302l10.532-7.933c.318-.24.528-.595.583-.99.055-.396-.048-.795-.288-1.113zm-11.435 6.736-18.513-24.551 8.136-6.129 18.513 24.552z" fill="#3a312a"/><path d="m81.148 186.213h33.749v13.186h-33.749z" fill="#87796f" transform="matrix(.602 -.799 .799 .602 -114.94 154.992)"/><path d="m114.933 183.091c-.055-.394-.265-.75-.583-.99l-10.532-7.934c-.66-.498-1.602-.366-2.1.295l-20.319 26.948c-.24.317-.343.717-.288 1.111s.265.75.583.99l10.532 7.933c.27.204.587.302.901.302.455 0 .904-.206 1.199-.597l20.318-26.947c.241-.317.344-.717.289-1.111zm-22.099 25.055-8.136-6.128 18.512-24.552 8.136 6.129z" fill="#3a312a"/><path d="m41.055 216.902c-.829 0-1.5.671-1.5 1.5v21.173c0 .829.671 1.5 1.5 1.5s1.5-.671 1.5-1.5v-21.173c0-.828-.671-1.5-1.5-1.5z" fill="#3a312a"/><path d="m124.223 216.902c-.829 0-1.5.671-1.5 1.5v21.173c0 .829.671 1.5 1.5 1.5s1.5-.671 1.5-1.5v-21.173c0-.828-.671-1.5-1.5-1.5z" fill="#3a312a"/><path d="m96.824 135.851c-.774-.29-1.64.102-1.931.878-1.023 2.73-5.026 7.894-12.85 7.894-6.113 0-10.332-2.621-12.901-8.013-.356-.747-1.251-1.066-1.999-.709-.748.356-1.065 1.251-.709 1.999 3.073 6.452 8.325 9.723 15.609 9.723 8.225 0 13.883-5.102 15.66-9.842.29-.775-.103-1.639-.879-1.93z" fill="#3a312a"/><path d="m82.042 16.68c-1.5 0-40.5 16.865-40.5 31.5 0 14.636 18.132 26.5 40.5 26.5 22.367 0 40.5-11.865 40.5-26.5 0-14.636-40-31.5-40.5-31.5z" fill="#87796f"/><path d="m103.252 25.656c-9.394-5.644-20.312-10.476-21.21-10.476-2.069 0-42 17.19-42 33 0 15.439 18.841 28 42 28s42-12.561 42-28c0-6.658-6.994-14.236-20.79-22.524zm-21.21 47.524c-21.505 0-39-11.215-39-25 0-12.699 34.288-28.57 38.922-29.945 4.641 1.726 39.078 17.491 39.078 29.945 0 13.785-17.495 25-39 25z" fill="#3a312a"/><path d="m234.897 79.057c-4.495-2.707-10.332-1.257-13.039 3.237l-29.404 48.83 16.277 9.801 29.404-48.83c2.706-4.493 1.257-10.331-3.238-13.038z" fill="#f16c7a"/><path d="m240.672 84.545c-.708-2.852-2.483-5.256-5.001-6.772-2.517-1.515-5.471-1.961-8.325-1.253-2.852.708-5.257 2.484-6.773 5.001l-29.404 48.831c-.427.71-.198 1.631.512 2.059l16.276 9.801c.235.142.503.215.773.215.121 0 .242-.015.361-.044.387-.096.719-.341.924-.682l29.404-48.83c1.516-2.517 1.962-5.474 1.253-8.326zm-3.822 6.778-28.63 47.545-13.707-8.254 28.631-47.545c1.102-1.831 2.851-3.122 4.925-3.637 2.074-.514 4.224-.191 6.056.911 1.83 1.102 3.122 2.852 3.637 4.925.513 2.074.19 4.224-.912 6.055z" fill="#3a312a"/><path d="m222.775 82.928h8.143v19h-8.143z" fill="#8ac6dd" transform="matrix(.516 -.857 .857 .516 30.644 239.079)"/><path d="m238.541 93.479c-.096-.386-.342-.718-.683-.924l-16.277-9.801c-.341-.205-.749-.267-1.135-.17-.387.096-.719.341-.924.682l-4.2 6.976c-.427.71-.198 1.631.512 2.059l16.276 9.802c.242.146.509.215.772.215.508 0 1.005-.259 1.286-.726l4.201-6.976c.206-.343.268-.751.172-1.137zm-6.168 5.279-13.707-8.254 2.653-4.406 13.707 8.254z" fill="#3a312a"/><path d="m192.454 131.125-1.663 21.178 17.939-11.376z" fill="#87796f"/><path d="m209.504 139.642-16.276-9.801c-.446-.268-.998-.286-1.46-.049-.462.238-.769.698-.809 1.217l-1.663 21.177c-.045.567.234 1.109.722 1.403.238.143.506.215.773.215.279 0 .559-.078.804-.233l17.94-11.376c.438-.278.702-.764.696-1.284-.006-.521-.282-1.001-.727-1.269zm-16.983 9.787 1.238-15.767 12.118 7.297z" fill="#3a312a"/><path d="m194.779 103.19c-1.62 0-3.22.08-4.81.24 5 1.35 9.62 3.45 13.7 6.16l2.97-4.94c-3.77-.94-7.75-1.46-11.86-1.46z" fill="#6ca8bf"/><path d="m226.099 114.99-7.4 12.29c1.28 3.01 2.14 6.19 2.54 9.5h2.81c.83 0 1.5.67 1.5 1.5s-.67 1.5-1.5 1.5h-2.57c.01.41.02.81.02 1.22 0 3.86-.63 7.59-1.82 11.11.56.21.96.75.96 1.39 0 .83-.67 1.5-1.5 1.5h-.57c-4.87 11.24-15.44 20-28.61 23.56 1.6.16 3.21.24 4.82.24 23.83 0 43.22-16.96 43.22-37.8 0-10.07-4.53-19.23-11.9-26.01z" fill="#6ca8bf"/></svg>